@startuml


interface java.util.concurrent.Future {
	{method}  {abstract} +cancel ( paramboolean1 : boolean ) : boolean
	{method}  {abstract} +get () : Object
	{method}  {abstract} +get ( paramlong1 : long , paramTimeUnit2 : java.util.concurrent.TimeUnit ) : Object
	{method}  {abstract} +isCancelled () : boolean
	{method}  {abstract} +isDone () : boolean
}


class java.util.concurrent.FutureTask {
	{method} +cancel ( paramboolean1 : boolean ) : boolean
	{method} +get () : Object
	{method} +get ( paramlong1 : long , paramTimeUnit2 : java.util.concurrent.TimeUnit ) : Object
	{method} +isDone () : boolean
	{method} +run () : void
	{method} +toString () : String
}


interface java.util.concurrent.RunnableFuture {
	{method}  {abstract} +run () : void
}


java.util.concurrent.FutureTask ..|>  java.util.concurrent.RunnableFuture
java.util.concurrent.RunnableFuture ..|>  java.util.concurrent.Future


@enduml